<svg width="150" height="150" fill="none" xmlns="http://www.w3.org/2000/svg"><path d="M76.94 23.713c-.053-.528-.278-.939-.675-1.231-.397-.293-.936-.439-1.618-.439-.462 0-.853.065-1.172.196-.319.127-.563.304-.733.53a1.277 1.277 0 0 0-.25.774c-.008.24.042.45.151.629.114.178.269.334.465.464a3.6 3.6 0 0 0 .681.335c.258.091.533.17.826.235l1.205.288a8.5 8.5 0 0 1 1.61.524c.49.219.913.487 1.271.806.358.319.636.694.832 1.126.2.433.303.928.308 1.487-.004.82-.214 1.532-.629 2.135-.41.598-1.004 1.063-1.781 1.395-.773.328-1.705.491-2.797.491-1.082 0-2.026-.166-2.829-.497-.799-.332-1.423-.823-1.873-1.474-.445-.655-.679-1.465-.7-2.43h2.743c.03.45.16.825.387 1.127.231.296.539.521.923.674a3.66 3.66 0 0 0 1.317.223c.48 0 .897-.07 1.25-.21.358-.14.636-.334.832-.583a1.34 1.34 0 0 0 .295-.858c0-.3-.09-.554-.269-.76-.174-.204-.432-.38-.772-.523a7.86 7.86 0 0 0-1.238-.393l-1.46-.367c-1.131-.275-2.024-.705-2.68-1.29-.654-.585-.98-1.373-.975-2.364-.004-.813.212-1.522.648-2.129.441-.607 1.046-1.08 1.814-1.421.769-.34 1.642-.51 2.62-.51.995 0 1.864.17 2.607.51.746.34 1.327.814 1.742 1.421.414.607.628 1.31.641 2.109H76.94Zm43.287 18.975L109.74 51.05l-1.768-2.217 10.487-8.363 1.768 2.218Zm11.561 39.835-.778 3.41-9.608 1.596-.035.153 7.964 5.606-.778 3.41-13.077-2.985.612-2.681 8.512 1.942.024-.108-7.675-5.312.417-1.826 9.252-1.45.025-.108-8.544-1.95.613-2.681 13.076 2.984Zm-33.981 31.633 5.82 12.085-4.768 2.296c-.917.441-1.782.642-2.596.603a3.957 3.957 0 0 1-2.171-.735c-.638-.449-1.15-1.075-1.536-1.878-.387-.802-.555-1.593-.504-2.374.05-.78.322-1.5.814-2.158.488-.657 1.197-1.209 2.125-1.656l3.039-1.463.986 2.047-2.626 1.265c-.492.236-.856.516-1.093.839-.24.328-.365.682-.376 1.06a2.48 2.48 0 0 0 .266 1.173c.194.401.443.713.748.934.303.227.656.346 1.058.355.404.014.854-.098 1.35-.337l1.723-.83-4.814-9.995 2.555-1.231Zm-38.541 3.849-5.82 12.085-2.555-1.231 4.805-9.978-5.18-2.495 1.014-2.106 7.736 3.725Zm-26.35-27.308L19.839 93.68l-2.011-8.81 2.28-.521 1.38 6.047 3.115-.712-1.276-5.593 2.28-.52 1.276 5.593 3.122-.713-1.386-6.072 2.28-.52 2.017 8.837Zm-4.713-47.194 5.26.735.066-.082-1.88-4.975 1.997-2.504 2.692 7.382 7.852.91-2.033 2.55-5.294-.704-.066.081 1.864 5.005-2.025 2.54-2.626-7.464-7.812-.96 2.005-2.514Zm47.572 7.873a.822.822 0 0 0-.383-.619c-.224-.146-.498-.22-.823-.22a1.56 1.56 0 0 0-.623.116.996.996 0 0 0-.414.317.76.76 0 0 0-.147.458.66.66 0 0 0 .102.37c.07.1.16.185.268.253.108.067.222.122.34.166.119.041.228.075.328.102l.545.146c.14.037.295.088.466.152.173.065.338.153.495.265.159.11.29.251.393.424.103.173.155.385.155.637 0 .29-.076.552-.228.786-.15.234-.37.42-.66.558-.289.138-.639.207-1.051.207a2.46 2.46 0 0 1-.998-.186 1.59 1.59 0 0 1-.66-.519 1.48 1.48 0 0 1-.27-.773h.67a.84.84 0 0 0 .205.503c.12.131.272.229.456.294.185.063.384.094.597.094.248 0 .47-.04.668-.12.197-.083.354-.196.469-.341a.807.807 0 0 0 .173-.514.629.629 0 0 0-.15-.434 1.09 1.09 0 0 0-.392-.273 4.13 4.13 0 0 0-.527-.183l-.66-.189c-.42-.12-.751-.292-.996-.516-.244-.224-.366-.516-.366-.878 0-.3.08-.562.243-.785.164-.226.385-.4.66-.524a2.23 2.23 0 0 1 .93-.189c.346 0 .654.062.922.186.27.122.483.29.64.503.159.213.242.455.251.726h-.629Zm19.249 9.012-4.195 3.345-.405-.508 4.195-3.346.405.509Zm5.245 18.762-.172.755-4.748.787-.014.06 3.936 2.77-.172.755-5.23-1.193.135-.593 3.974.907.011-.05-3.6-2.543.13-.572 4.347-.727.012-.051-3.974-.907.135-.593 5.23 1.194ZM85.007 93.543l2.328 4.834-1.634.787c-.379.183-.722.263-1.028.242a1.426 1.426 0 0 1-.803-.29 1.883 1.883 0 0 1-.548-.69 1.9 1.9 0 0 1-.2-.861c.004-.288.092-.56.266-.814.175-.253.45-.47.826-.651l1.171-.564.25.52-1.152.554c-.26.125-.446.27-.56.436a.89.89 0 0 0-.168.528c.002.19.05.38.143.574.093.194.213.35.359.467a.86.86 0 0 0 .517.193c.201.011.433-.046.696-.173l1.03-.495-2.078-4.315.585-.282Zm-17.835 1.353-2.328 4.834-.586-.282 2.078-4.315-2.247-1.082.25-.52 2.833 1.365Zm-11.941-13-5.23 1.194-.721-3.157.562-.128.576 2.523 1.767-.403-.538-2.36.561-.128.539 2.36 1.778-.406-.586-2.564.562-.129.73 3.198Zm-1.468-20.778 2.608.31.026-.032-.883-2.473.477-.598 1.046 2.991 3.149.354-.477.598-2.575-.284-.026.033.85 2.446-.477.599-1.02-3.025-3.175-.32.477-.599Z" fill="#170D0C"/><path fill-rule="evenodd" clip-rule="evenodd" d="M75 149.385c41.082 0 74.385-33.303 74.385-74.385C149.385 33.918 116.082.615 75 .615 33.918.615.615 33.918.615 75c0 41.082 33.303 74.385 74.385 74.385Zm0 .615c41.421 0 75-33.579 75-75S116.421 0 75 0 0 33.579 0 75s33.579 75 75 75Z" fill="#170D0C"/></svg>