<svg width="150" height="150" viewBox="0 0 150 150" fill="none" xmlns="http://www.w3.org/2000/svg">
<path d="M76.9396 23.713C76.8872 23.1847 76.6624 22.7743 76.265 22.4817C75.8677 22.1892 75.3285 22.043 74.6474 22.043C74.1846 22.043 73.7938 22.1084 73.4751 22.2394C73.1563 22.366 72.9118 22.5429 72.7416 22.7699C72.5756 22.997 72.4927 23.2546 72.4927 23.5427C72.4839 23.7829 72.5342 23.9924 72.6433 24.1715C72.7568 24.3505 72.9118 24.5055 73.1083 24.6364C73.3048 24.7631 73.5318 24.8744 73.7894 24.9705C74.047 25.0621 74.3221 25.1407 74.6146 25.2062L75.8197 25.4944C76.4048 25.6254 76.9418 25.8 77.4308 26.0183C77.9198 26.2366 78.3433 26.5052 78.7014 26.8239C79.0594 27.1426 79.3366 27.5181 79.5331 27.9504C79.7339 28.3826 79.8365 28.8782 79.8409 29.437C79.8365 30.2579 79.627 30.9695 79.2122 31.5721C78.8018 32.1702 78.208 32.6352 77.4308 32.9671C76.658 33.2945 75.7258 33.4583 74.6343 33.4583C73.5515 33.4583 72.6084 33.2923 71.805 32.9605C71.006 32.6287 70.3816 32.1375 69.9319 31.4869C69.4866 30.832 69.253 30.0221 69.2312 29.0572H71.9753C72.0059 29.5069 72.1347 29.8824 72.3617 30.1836C72.5931 30.4805 72.9009 30.7054 73.2851 30.8582C73.6737 31.0067 74.1125 31.0809 74.6015 31.0809C75.0818 31.0809 75.4988 31.011 75.8524 30.8713C76.2105 30.7316 76.4877 30.5373 76.6842 30.2884C76.8807 30.0396 76.9789 29.7536 76.9789 29.4305C76.9789 29.1292 76.8894 28.876 76.7104 28.6708C76.5357 28.4656 76.2781 28.2909 75.9376 28.1468C75.6014 28.0027 75.1888 27.8718 74.6998 27.7539L73.2393 27.3871C72.1085 27.1121 71.2156 26.682 70.5607 26.0969C69.9057 25.5119 69.5805 24.7238 69.5848 23.7327C69.5805 22.9205 69.7966 22.211 70.2332 21.6042C70.6742 20.9973 71.2789 20.5235 72.0473 20.183C72.8158 19.8424 73.689 19.6721 74.667 19.6721C75.6625 19.6721 76.5314 19.8424 77.2736 20.183C78.0202 20.5235 78.6009 20.9973 79.0157 21.6042C79.4305 22.211 79.6444 22.914 79.6575 23.713H76.9396Z" fill="#170D0C"/>
<path d="M120.227 42.6875L109.74 51.0503L107.972 48.8332L118.459 40.4704L120.227 42.6875Z" fill="#170D0C"/>
<path d="M131.788 82.5232L131.01 85.9328L121.402 87.5287L121.367 87.6819L129.331 93.2884L128.553 96.698L115.476 93.7133L116.088 91.0316L124.6 92.9743L124.624 92.8657L116.949 87.5536L117.366 85.7275L126.618 84.2788L126.643 84.1702L118.099 82.2203L118.712 79.5386L131.788 82.5232Z" fill="#170D0C"/>
<path d="M97.807 114.156L103.627 126.241L98.8588 128.537C97.9423 128.978 97.0771 129.179 96.2634 129.14C95.4515 129.104 94.7278 128.859 94.092 128.405C93.4543 127.956 92.9421 127.33 92.5557 126.527C92.1692 125.725 92.0013 124.934 92.052 124.153C92.1026 123.373 92.374 122.653 92.8661 121.995C93.3543 121.338 94.0626 120.786 94.991 120.339L98.0298 118.876L99.0158 120.923L96.39 122.188C95.8983 122.424 95.5339 122.704 95.2967 123.027C95.0575 123.355 94.9321 123.709 94.9207 124.087C94.9071 124.472 94.996 124.863 95.1874 125.26C95.3806 125.661 95.6298 125.973 95.9351 126.194C96.2383 126.421 96.591 126.54 96.9931 126.549C97.3972 126.563 97.847 126.451 98.3427 126.212L100.066 125.382L95.252 115.387L97.807 114.156Z" fill="#170D0C"/>
<path d="M59.2658 118.005L53.4461 130.09L50.8912 128.859L55.6963 118.881L50.5156 116.386L51.53 114.28L59.2658 118.005Z" fill="#170D0C"/>
<path d="M32.9155 90.6968L19.839 93.6815L17.8279 84.8701L20.1073 84.3499L21.4874 90.3965L24.6033 89.6853L23.3267 84.092L25.6061 83.5717L26.8828 89.165L30.005 88.4524L28.6191 82.3802L30.8986 81.86L32.9155 90.6968Z" fill="#170D0C"/>
<path d="M28.2033 43.5027L33.4638 44.2381L33.5291 44.1562L31.6497 39.1811L33.6464 36.6772L36.3376 44.0588L44.1902 44.9683L42.1567 47.5182L36.8625 46.8145L36.7971 46.8964L38.6613 51.9013L36.6359 54.441L34.0101 46.9774L26.1984 46.0168L28.2033 43.5027Z" fill="#170D0C"/>
<path d="M75.7745 51.3756C75.7431 51.1102 75.6156 50.9041 75.392 50.7574C75.1685 50.6107 74.8943 50.5373 74.5694 50.5373C74.3319 50.5373 74.1241 50.5758 73.9459 50.6526C73.7696 50.7294 73.6316 50.8351 73.532 50.9696C73.4342 51.1041 73.3853 51.2569 73.3853 51.428C73.3853 51.5712 73.4194 51.6944 73.4875 51.7974C73.5574 51.8987 73.6464 51.9834 73.7547 52.0515C73.863 52.1179 73.9765 52.1729 74.0953 52.2166C74.214 52.2585 74.3232 52.2925 74.4227 52.3187L74.9676 52.4654C75.1073 52.5021 75.2628 52.5527 75.4339 52.6174C75.6068 52.682 75.7719 52.7702 75.9291 52.882C76.088 52.992 76.219 53.1334 76.322 53.3063C76.425 53.4792 76.4766 53.6914 76.4766 53.9429C76.4766 54.2328 76.4006 54.4948 76.2487 54.7288C76.0985 54.9629 75.8784 55.1489 75.5885 55.2868C75.3003 55.4248 74.9502 55.4938 74.538 55.4938C74.1538 55.4938 73.8211 55.4318 73.5399 55.3078C73.2605 55.1838 73.0404 55.0109 72.8797 54.7891C72.7208 54.5673 72.6309 54.3097 72.6099 54.0163H73.2805C73.298 54.2189 73.3661 54.3865 73.4849 54.5193C73.6054 54.6502 73.7573 54.748 73.9407 54.8127C74.1258 54.8755 74.3249 54.907 74.538 54.907C74.786 54.907 75.0087 54.8668 75.206 54.7865C75.4034 54.7044 75.5597 54.5909 75.6749 54.4459C75.7902 54.2992 75.8478 54.1281 75.8478 53.9324C75.8478 53.7543 75.7981 53.6094 75.6985 53.4976C75.599 53.3858 75.468 53.295 75.3056 53.2251C75.1431 53.1553 74.9676 53.0941 74.779 53.0418L74.1188 52.8531C73.6997 52.7326 73.3679 52.5606 73.1234 52.3371C72.8789 52.1135 72.7566 51.821 72.7566 51.4595C72.7566 51.1591 72.8378 50.8971 73.0002 50.6736C73.1644 50.4483 73.3845 50.2736 73.6604 50.1496C73.9381 50.0239 74.2481 49.961 74.5904 49.961C74.9362 49.961 75.2436 50.023 75.5125 50.147C75.7815 50.2692 75.9945 50.4369 76.1517 50.65C76.3107 50.863 76.3945 51.1049 76.4032 51.3756H75.7745Z" fill="#170D0C"/>
<path d="M95.0241 60.3875L90.8294 63.7326L90.4244 63.2247L94.619 59.8795L95.0241 60.3875Z" fill="#170D0C"/>
<path d="M100.269 79.1491L100.097 79.905L95.3493 80.6916L95.3353 80.7529L99.2714 83.5215L99.0989 84.2775L93.8683 83.0837L94.0035 82.4911L97.9775 83.3982L97.9892 83.3471L94.3882 80.8055L94.5188 80.2334L98.8659 79.5059L98.8776 79.4548L94.9036 78.5477L95.0388 77.9552L100.269 79.1491Z" fill="#170D0C"/>
<path d="M85.0069 93.5435L87.3347 98.3773L85.7014 99.1638C85.3222 99.3465 84.9793 99.4273 84.6726 99.4063C84.3651 99.3877 84.0975 99.2908 83.8696 99.1155C83.6418 98.9403 83.4593 98.7103 83.3222 98.4255C83.185 98.1407 83.1186 97.8538 83.1229 97.5648C83.1256 97.2767 83.214 97.0054 83.388 96.7509C83.5629 96.4981 83.8383 96.2811 84.2144 96.1L85.3851 95.5363L85.6351 96.0555L84.4833 96.6102C84.2237 96.7352 84.0368 96.8805 83.9226 97.046C83.8085 97.2114 83.7527 97.3875 83.7554 97.5742C83.7573 97.7633 83.8049 97.9546 83.8981 98.1481C83.9913 98.3417 84.1108 98.4973 84.2567 98.6151C84.401 98.7336 84.5735 98.7979 84.7741 98.8079C84.9754 98.8195 85.2075 98.762 85.4703 98.6355L86.4993 98.1399L84.4216 93.8254L85.0069 93.5435Z" fill="#170D0C"/>
<path d="M67.1716 94.8958L64.8437 99.7296L64.2584 99.4477L66.3362 95.1332L64.0892 94.0511L64.3393 93.5318L67.1716 94.8958Z" fill="#170D0C"/>
<path d="M55.231 81.896L50.0004 83.0899L49.2799 79.9331L49.8418 79.8049L50.4177 82.3282L52.1851 81.9249L51.6465 79.565L52.2084 79.4367L52.747 81.7966L54.5246 81.3909L53.9393 78.8267L54.5012 78.6984L55.231 81.896Z" fill="#170D0C"/>
<path d="M53.7634 61.1184L56.3708 61.4286L56.397 61.3958L55.5143 58.9228L55.9913 58.3247L57.0367 61.3163L60.1859 61.6698L59.709 62.2679L57.1343 61.9839L57.1082 62.0166L57.958 64.4635L57.4811 65.0616L56.4618 62.0373L53.2865 61.7165L53.7634 61.1184Z" fill="#170D0C"/>
<path fill-rule="evenodd" clip-rule="evenodd" d="M75 149.385C116.082 149.385 149.385 116.082 149.385 75C149.385 33.9182 116.082 0.614754 75 0.614754C33.9182 0.614754 0.614754 33.9182 0.614754 75C0.614754 116.082 33.9182 149.385 75 149.385ZM75 150C116.421 150 150 116.421 150 75C150 33.5786 116.421 0 75 0C33.5786 0 0 33.5786 0 75C0 116.421 33.5786 150 75 150Z" fill="#170D0C"/>
</svg>
